<svg width="1920" height="1080" viewBox="0 0 1920 1080" fill="none" xmlns="http://www.w3.org/2000/svg">
<mask id="mask0_4_11" style="mask-type:alpha" maskUnits="userSpaceOnUse" x="0" y="0" width="1920" height="1080">
<rect width="1920" height="1080" transform="matrix(-1 0 0 1 1920 0)" fill="#C4C4C4"/>
</mask>
<g mask="url(#mask0_4_11)">
<rect width="1920" height="1080" transform="matrix(-1 0 0 1 1920 0)" fill="url(#paint0_linear_4_11)" fill-opacity="0.5"/>
<rect width="1260.1" height="372.46" transform="matrix(-0.707107 -0.707107 -0.707107 0.707107 2239.39 1070.02)" fill="url(#paint1_linear_4_11)" fill-opacity="0.36"/>
<rect width="1981.92" height="612.721" transform="matrix(-0.707107 -0.707107 -0.707107 0.707107 2112 1336.74)" fill="url(#paint2_linear_4_11)" fill-opacity="0.36"/>
<rect width="1232.66" height="616.988" transform="matrix(-0.707107 -0.707107 -0.707107 0.707107 1220 1450.09)" fill="url(#paint3_linear_4_11)" fill-opacity="0.36"/>
<rect width="1577.6" height="409.365" transform="matrix(-0.707107 -0.707107 -0.707107 0.707107 1041 1599.54)" fill="url(#paint4_linear_4_11)" fill-opacity="0.36"/>
<rect width="1709.03" height="616.988" transform="matrix(-0.707107 -0.707107 -0.707107 0.707107 2035.74 1845.46)" fill="url(#paint5_linear_4_11)" fill-opacity="0.36"/>
</g>
<defs>
<linearGradient id="paint0_linear_4_11" x1="960" y1="0" x2="960" y2="1080" gradientUnits="userSpaceOnUse">
<stop stop-opacity="0"/>
<stop offset="1" stop-color="#16105F"/>
</linearGradient>
<linearGradient id="paint1_linear_4_11" x1="-96.8802" y1="0" x2="1259.44" y2="0" gradientUnits="userSpaceOnUse">
<stop stop-color="#2A43C7"/>
<stop offset="1" stop-color="#2A30C7" stop-opacity="0"/>
</linearGradient>
<linearGradient id="paint2_linear_4_11" x1="-152.376" y1="0" x2="1980.89" y2="0" gradientUnits="userSpaceOnUse">
<stop stop-color="#2A43C7"/>
<stop offset="1" stop-color="#2A30C7" stop-opacity="0"/>
</linearGradient>
<linearGradient id="paint3_linear_4_11" x1="-94.7707" y1="0" x2="1232.02" y2="0" gradientUnits="userSpaceOnUse">
<stop stop-color="#2A43C7"/>
<stop offset="1" stop-color="#2A30C7" stop-opacity="0"/>
</linearGradient>
<linearGradient id="paint4_linear_4_11" x1="-121.291" y1="0" x2="1576.78" y2="0" gradientUnits="userSpaceOnUse">
<stop stop-color="#2A43C7"/>
<stop offset="1" stop-color="#2A30C7" stop-opacity="0"/>
</linearGradient>
<linearGradient id="paint5_linear_4_11" x1="-131.395" y1="0" x2="1708.14" y2="0" gradientUnits="userSpaceOnUse">
<stop stop-color="#2A43C7"/>
<stop offset="1" stop-color="#2A30C7" stop-opacity="0"/>
</linearGradient>
</defs>
</svg>
