<svg width="138" height="21" viewBox="0 0 138 21" fill="none" xmlns="http://www.w3.org/2000/svg">
<path d="M14.876 15.2963V20.0563H0.708V0.176336H14.624V4.93634H6.168V7.73634H13.392V12.1603H6.168V15.2963H14.876ZM17.415 20.0563V0.176336H22.875V20.0563H17.415ZM26.3018 20.0563V0.176336H33.9458C36.1484 0.176336 37.9871 0.624336 39.4618 1.52034C40.9551 2.39767 42.0751 3.59234 42.8218 5.10434C43.5871 6.59767 43.9698 8.259 43.9698 10.0883C43.9698 12.1043 43.5498 13.859 42.7098 15.3523C41.8884 16.8457 40.7218 18.003 39.2098 18.8243C37.7164 19.6457 35.9618 20.0563 33.9458 20.0563H26.3018ZM38.4258 10.0883C38.4258 9.06167 38.2484 8.16567 37.8938 7.40034C37.5391 6.61634 37.0258 6.00967 36.3538 5.58034C35.6818 5.151 34.8791 4.93634 33.9458 4.93634H31.7618V15.2963H33.9458C34.8978 15.2963 35.7004 15.0723 36.3538 14.6243C37.0258 14.1763 37.5391 13.5603 37.8938 12.7763C38.2484 11.9737 38.4258 11.0777 38.4258 10.0883ZM55.3047 20.2243C53.7927 20.2243 52.4207 19.9443 51.1887 19.3843C49.9567 18.8057 48.8927 18.0403 47.9967 17.0883C47.1194 16.1177 46.4381 15.035 45.9527 13.8403C45.4861 12.627 45.2527 11.3763 45.2527 10.0883C45.2527 8.763 45.5047 7.503 46.0087 6.30834C46.5127 5.11367 47.2127 4.04967 48.1087 3.11634C49.0234 2.16434 50.0967 1.41767 51.3287 0.876336C52.5794 0.335003 53.9421 0.0643361 55.4167 0.0643361C56.9287 0.0643361 58.3007 0.35367 59.5327 0.932337C60.7647 1.49234 61.8194 2.25767 62.6967 3.22834C63.5741 4.199 64.2461 5.291 64.7127 6.50434C65.1981 7.699 65.4407 8.931 65.4407 10.2003C65.4407 11.507 65.1887 12.7577 64.6847 13.9523C64.1994 15.147 63.4994 16.2203 62.5847 17.1723C61.6887 18.1057 60.6247 18.8523 59.3927 19.4123C58.1607 19.9537 56.7981 20.2243 55.3047 20.2243ZM50.7967 10.1443C50.7967 10.8163 50.8901 11.4697 51.0767 12.1043C51.2634 12.7203 51.5434 13.2803 51.9167 13.7843C52.2901 14.2697 52.7567 14.6617 53.3167 14.9603C53.8954 15.2403 54.5767 15.3803 55.3607 15.3803C56.1447 15.3803 56.8261 15.231 57.4047 14.9323C57.9834 14.6337 58.4501 14.2323 58.8047 13.7283C59.1781 13.2057 59.4487 12.6363 59.6167 12.0203C59.8034 11.3857 59.8967 10.7417 59.8967 10.0883C59.8967 9.41634 59.8034 8.77234 59.6167 8.15634C59.4301 7.54034 59.1501 6.98967 58.7767 6.50434C58.4034 6.00034 57.9274 5.60834 57.3487 5.32834C56.7701 5.04834 56.0981 4.90834 55.3327 4.90834C54.5487 4.90834 53.8674 5.05767 53.2887 5.35634C52.7287 5.655 52.2621 6.05634 51.8887 6.56034C51.5154 7.04567 51.2354 7.60567 51.0487 8.24034C50.8807 8.85634 50.7967 9.491 50.7967 10.1443Z" fill="#4D94FF"/>
<path d="M68.4549 0.176336L75.5669 17.6203L82.6509 0.176336H84.6949L76.4629 20.0563H74.6709L66.4109 0.176336H68.4549ZM94.7852 20.1963C93.3852 20.1963 92.1158 19.9163 90.9772 19.3563C89.8385 18.7963 88.8585 18.0403 88.0372 17.0883C87.2158 16.1177 86.5812 15.035 86.1332 13.8403C85.6852 12.627 85.4612 11.3857 85.4612 10.1163C85.4612 8.791 85.6945 7.531 86.1612 6.33634C86.6278 5.123 87.2812 4.04967 88.1212 3.11634C88.9798 2.16434 89.9785 1.41767 91.1172 0.876336C92.2558 0.316336 93.4878 0.0363364 94.8132 0.0363364C96.2132 0.0363364 97.4825 0.32567 98.6212 0.904337C99.7598 1.483 100.73 2.25767 101.533 3.22834C102.354 4.199 102.989 5.28167 103.437 6.47634C103.885 7.671 104.109 8.89367 104.109 10.1443C104.109 11.4697 103.876 12.739 103.409 13.9523C102.942 15.147 102.289 16.2203 101.449 17.1723C100.609 18.1057 99.6198 18.843 98.4812 19.3843C97.3425 19.9257 96.1105 20.1963 94.7852 20.1963ZM87.4212 10.1163C87.4212 11.199 87.5985 12.2443 87.9532 13.2523C88.3078 14.2417 88.8118 15.1283 89.4652 15.9123C90.1185 16.6777 90.8932 17.2937 91.7892 17.7603C92.7038 18.2083 93.7025 18.4323 94.7852 18.4323C95.9238 18.4323 96.9412 18.199 97.8372 17.7323C98.7518 17.247 99.5265 16.6123 100.161 15.8283C100.814 15.0257 101.309 14.1297 101.645 13.1403C101.981 12.151 102.149 11.143 102.149 10.1163C102.149 9.03367 101.972 7.99767 101.617 7.00834C101.262 6.019 100.749 5.13234 100.077 4.34834C99.4238 3.56434 98.6492 2.94834 97.7532 2.50034C96.8572 2.05234 95.8678 1.82834 94.7852 1.82834C93.6652 1.82834 92.6478 2.06167 91.7332 2.52834C90.8372 2.995 90.0625 3.62967 89.4092 4.43234C88.7745 5.21634 88.2798 6.103 87.9252 7.09234C87.5892 8.08167 87.4212 9.08967 87.4212 10.1163ZM121.206 1.91234H114.122V20.0563H112.162V1.91234H105.078V0.176336H121.206V1.91234ZM137.539 18.3203V20.0563H124.183V0.176336H137.287V1.91234H126.143V9.08034H135.859V10.7323H126.143V18.3203H137.539Z" fill="#E74444"/>
</svg>
