<svg width="127" height="22" viewBox="0 0 127 22" fill="none" xmlns="http://www.w3.org/2000/svg">
<path d="M0.708 21V1.12H9.276C10.2467 1.12 11.1427 1.316 11.964 1.708C12.7853 2.1 13.4947 2.632 14.092 3.304C14.6893 3.95733 15.1467 4.69467 15.464 5.516C15.8 6.33733 15.968 7.168 15.968 8.008C15.968 9.184 15.688 10.2947 15.128 11.34C14.5867 12.3853 13.8213 13.244 12.832 13.916C11.8613 14.5693 10.7227 14.896 9.416 14.896H6.168V21H0.708ZM6.168 10.136H9.052C9.276 10.136 9.49067 10.0707 9.696 9.94C9.90133 9.80933 10.0693 9.58533 10.2 9.268C10.3493 8.95067 10.424 8.53067 10.424 8.008C10.424 7.448 10.34 7.01867 10.172 6.72C10.0227 6.40267 9.82667 6.188 9.584 6.076C9.36 5.94533 9.136 5.88 8.912 5.88H6.168V10.136ZM27.1133 21.168C25.6013 21.168 24.2293 20.888 22.9973 20.328C21.7653 19.7493 20.7013 18.984 19.8053 18.032C18.928 17.0613 18.2466 15.9787 17.7613 14.784C17.2946 13.5707 17.0613 12.32 17.0613 11.032C17.0613 9.70667 17.3133 8.44667 17.8173 7.252C18.3213 6.05733 19.0213 4.99333 19.9173 4.06C20.832 3.108 21.9053 2.36133 23.1373 1.82C24.388 1.27867 25.7506 1.008 27.2253 1.008C28.7373 1.008 30.1093 1.29733 31.3413 1.876C32.5733 2.436 33.628 3.20133 34.5053 4.172C35.3826 5.14267 36.0546 6.23467 36.5213 7.448C37.0066 8.64267 37.2493 9.87467 37.2493 11.144C37.2493 12.4507 36.9973 13.7013 36.4933 14.896C36.008 16.0907 35.308 17.164 34.3933 18.116C33.4973 19.0493 32.4333 19.796 31.2013 20.356C29.9693 20.8973 28.6066 21.168 27.1133 21.168ZM22.6053 11.088C22.6053 11.76 22.6986 12.4133 22.8853 13.048C23.072 13.664 23.352 14.224 23.7253 14.728C24.0986 15.2133 24.5653 15.6053 25.1253 15.904C25.704 16.184 26.3853 16.324 27.1693 16.324C27.9533 16.324 28.6346 16.1747 29.2133 15.876C29.792 15.5773 30.2586 15.176 30.6133 14.672C30.9866 14.1493 31.2573 13.58 31.4253 12.964C31.612 12.3293 31.7053 11.6853 31.7053 11.032C31.7053 10.36 31.612 9.716 31.4253 9.1C31.2386 8.484 30.9586 7.93333 30.5853 7.448C30.212 6.944 29.736 6.552 29.1573 6.272C28.5786 5.992 27.9066 5.852 27.1413 5.852C26.3573 5.852 25.676 6.00133 25.0973 6.3C24.5373 6.59867 24.0706 7 23.6973 7.504C23.324 7.98933 23.044 8.54933 22.8573 9.184C22.6893 9.8 22.6053 10.4347 22.6053 11.088ZM39.5635 21V1.12H45.0235V16.24H54.0395V21H39.5635ZM55.9424 21V1.12H61.4024V16.24H70.4184V21H55.9424Z" fill="#4D94FF"/>
<path d="M88.0573 15.876C88.0573 16.8653 87.8053 17.752 87.3013 18.536C86.7973 19.3013 86.1159 19.908 85.2573 20.356C84.4173 20.7853 83.4933 21 82.4853 21H73.1053V1.12H82.6813C83.6146 1.12 84.4173 1.372 85.0893 1.876C85.7799 2.36133 86.3026 2.996 86.6573 3.78C87.0306 4.54533 87.2173 5.348 87.2173 6.188C87.2173 7.17733 86.9653 8.092 86.4613 8.932C85.9573 9.772 85.2573 10.3973 84.3613 10.808C85.4999 11.144 86.3959 11.7693 87.0493 12.684C87.7213 13.5987 88.0573 14.6627 88.0573 15.876ZM86.0973 15.54C86.0973 14.868 85.9479 14.252 85.6493 13.692C85.3506 13.1133 84.9399 12.6467 84.4173 12.292C83.9133 11.9373 83.3346 11.76 82.6813 11.76H75.0653V19.292H82.4853C83.1573 19.292 83.7639 19.1147 84.3053 18.76C84.8466 18.4053 85.2759 17.948 85.5933 17.388C85.9293 16.8093 86.0973 16.1933 86.0973 15.54ZM75.0653 2.828V10.164H81.8973C82.5506 10.164 83.1293 9.996 83.6333 9.66C84.1373 9.30533 84.5386 8.848 84.8373 8.288C85.1359 7.728 85.2853 7.13067 85.2853 6.496C85.2853 5.824 85.1453 5.21733 84.8653 4.676C84.5853 4.116 84.2026 3.668 83.7173 3.332C83.2319 2.996 82.6813 2.828 82.0653 2.828H75.0653ZM99.7617 21.14C98.3617 21.14 97.0924 20.86 95.9537 20.3C94.8151 19.74 93.8351 18.984 93.0137 18.032C92.1924 17.0613 91.5577 15.9787 91.1097 14.784C90.6617 13.5707 90.4377 12.3293 90.4377 11.06C90.4377 9.73467 90.6711 8.47467 91.1377 7.28C91.6044 6.06667 92.2577 4.99333 93.0977 4.06C93.9564 3.108 94.9551 2.36133 96.0937 1.82C97.2324 1.26 98.4644 0.979999 99.7897 0.979999C101.19 0.979999 102.459 1.26933 103.598 1.848C104.736 2.42667 105.707 3.20133 106.51 4.172C107.331 5.14267 107.966 6.22533 108.414 7.42C108.862 8.61467 109.086 9.83733 109.086 11.088C109.086 12.4133 108.852 13.6827 108.386 14.896C107.919 16.0907 107.266 17.164 106.426 18.116C105.586 19.0493 104.596 19.7867 103.458 20.328C102.319 20.8693 101.087 21.14 99.7617 21.14ZM92.3977 11.06C92.3977 12.1427 92.5751 13.188 92.9297 14.196C93.2844 15.1853 93.7884 16.072 94.4417 16.856C95.0951 17.6213 95.8697 18.2373 96.7657 18.704C97.6804 19.152 98.6791 19.376 99.7617 19.376C100.9 19.376 101.918 19.1427 102.814 18.676C103.728 18.1907 104.503 17.556 105.138 16.772C105.791 15.9693 106.286 15.0733 106.622 14.084C106.958 13.0947 107.126 12.0867 107.126 11.06C107.126 9.97733 106.948 8.94133 106.594 7.952C106.239 6.96267 105.726 6.076 105.054 5.292C104.4 4.508 103.626 3.892 102.73 3.444C101.834 2.996 100.844 2.772 99.7617 2.772C98.6417 2.772 97.6244 3.00533 96.7097 3.472C95.8137 3.93867 95.0391 4.57333 94.3857 5.376C93.7511 6.16 93.2564 7.04667 92.9017 8.036C92.5657 9.02533 92.3977 10.0333 92.3977 11.06ZM111.712 1.12L118.208 9.772L124.676 1.12H126.888L119.272 11.2L126.664 21H124.452L118.208 12.628L111.936 21H109.696L117.088 11.2L109.472 1.12H111.712Z" fill="#E74444"/>
</svg>
