<svg width="104" height="104" viewBox="0 0 104 104" fill="none" xmlns="http://www.w3.org/2000/svg">
<path d="M93.4161 61.4516C88.2858 66.5592 81.739 70.0056 74.6258 71.3432C67.5126 72.6808 60.1617 71.8478 53.5277 68.9525L27.4853 99.1061C27.4353 99.1561 27.3853 99.2561 27.2854 99.3061C25.8039 100.794 24.0434 101.974 22.1048 102.78C20.1663 103.585 18.0878 104 15.9887 104C13.8895 104 11.8111 103.585 9.8725 102.78C7.93393 101.974 6.17342 100.794 4.69197 99.3061C3.20481 97.8241 2.0248 96.0628 1.21964 94.1234C0.414472 92.1841 0 90.1048 0 88.0048C0 85.9048 0.414472 83.8254 1.21964 81.8861C2.0248 79.9467 3.20481 78.1855 4.69197 76.7034C4.74195 76.6034 4.84192 76.5534 4.89191 76.5034L35.0331 50.4503C32.1432 43.85 31.2993 36.534 32.6108 29.4487C33.9223 22.3635 37.3287 15.8348 42.3894 10.7074C47.4501 5.57998 53.9323 2.08963 60.9975 0.687863C68.0626 -0.713907 75.3857 0.0373953 82.0194 2.84459C82.5193 3.06436 82.9708 3.38068 83.3483 3.77541C83.7257 4.17014 84.0215 4.63552 84.2188 5.14486C84.4098 5.6543 84.4908 6.19846 84.4563 6.74149C84.4219 7.28451 84.2727 7.81406 84.0188 8.29524C83.863 8.7038 83.6048 9.06542 83.269 9.34536L63.8247 28.8477L65.7241 38.2488L75.1214 40.149L94.6157 20.6967C94.8956 20.3608 95.257 20.1025 95.6654 19.9466C96.1464 19.6926 96.6757 19.5434 97.2185 19.5089C97.7613 19.4745 98.3053 19.5555 98.8145 19.7466C99.3236 19.9439 99.7888 20.2399 100.183 20.6175C100.578 20.995 100.894 21.4468 101.114 21.9469C103.936 28.545 104.711 35.8394 103.339 42.8837C101.966 49.928 98.509 56.3971 93.4161 61.4516Z" fill="#FFA63D"/>
</svg>
